<svg id="Слой_1" data-name="Слой 1" xmlns="http://www.w3.org/2000/svg" viewBox="0 0 1920 1080"><defs><style>.cls-1{fill:#619ede;}.cls-2{fill:#05629c;}</style></defs><polygon class="cls-1" points="579.17 449.13 579.17 397.56 387.4 397.56 387.4 449.13 453.17 449.13 453.17 627.48 513.09 627.48 513.09 449.13 579.17 449.13"/><path class="cls-1" d="M670.16,457.18q-20.13-11-44.72-11-26.43,0-47.17,11.83a85.52,85.52,0,0,0-32.58,32.68q-11.84,20.86-11.83,47.79,0,26.28,12.14,47.13a86.43,86.43,0,0,0,34.11,32.84q22,12,51.79,12,23.65,0,41.18-7.39a76.59,76.59,0,0,0,29.19-21.18l-30.42-34.49A63.89,63.89,0,0,1,654.64,579q-8.61,3.78-21.21,3.78-13.21,0-22.74-5.09a34.78,34.78,0,0,1-14.6-14.62,40.78,40.78,0,0,1-3.4-8.87H713.64c.2-2.41.41-5,.62-7.88s.31-5.36.31-7.55q0-29.56-12.14-50.09A83.75,83.75,0,0,0,670.16,457.18Zm-62.85,38.59a34.94,34.94,0,0,1,18.75-4.93,32.84,32.84,0,0,1,18.13,4.93,34,34,0,0,1,12.14,14,39.83,39.83,0,0,1,3.58,11.66H591.75a44.46,44.46,0,0,1,3.42-11.66A31.28,31.28,0,0,1,607.31,495.77Z"/><path class="cls-2" d="M985.52,397.55H955.1L877.26,581.29l19.53,28L913,570h114.39L1051,627.48h32.26ZM923.77,543.73,970.16,430.9l46.38,112.83Z"/><path class="cls-2" d="M1126.7,486.9a54.51,54.51,0,0,1,28.58-7.55,52.29,52.29,0,0,1,24.74,6.07q11.52,6.09,19.51,18.89L1222,488.87a64.2,64.2,0,0,0-26.9-27.75q-17.35-9.36-39.49-9.36-24.88,0-44.4,11.33a80.48,80.48,0,0,0-30.58,31.37q-11.07,20-11.07,46t11.07,46A81.65,81.65,0,0,0,1111.18,618q19.52,11.5,44.4,11.49,22.13,0,39.49-9.68A66.63,66.63,0,0,0,1222,592l-22.44-15.1q-8,12.79-19.51,18.88a52.29,52.29,0,0,1-24.74,6.08,54.42,54.42,0,0,1-28.58-7.56,53.8,53.8,0,0,1-20-21.35q-7.38-13.79-7.38-32.51t7.38-32.35A54.16,54.16,0,0,1,1126.7,486.9Z"/><path class="cls-2" d="M1279.37,486.9a54.56,54.56,0,0,1,28.58-7.55,52.26,52.26,0,0,1,24.74,6.07q11.52,6.09,19.52,18.89l22.43-15.44a64.18,64.18,0,0,0-26.89-27.75q-17.37-9.36-39.49-9.36-24.9,0-44.41,11.33a80.62,80.62,0,0,0-30.58,31.37q-11.05,20-11.06,46t11.06,46A81.79,81.79,0,0,0,1263.85,618q19.51,11.5,44.41,11.49,22.13,0,39.49-9.68A66.61,66.61,0,0,0,1374.64,592l-22.43-15.1q-8,12.79-19.52,18.88a52.27,52.27,0,0,1-24.74,6.08,54.47,54.47,0,0,1-28.58-7.56,53.87,53.87,0,0,1-20-21.35q-7.37-13.79-7.37-32.51t7.37-32.35A54.23,54.23,0,0,1,1279.37,486.9Z"/><polygon class="cls-2" points="1417.38 580.18 1417.38 453.4 1387.87 453.4 1387.87 627.48 1414.92 627.48 1514.49 500.69 1514.49 627.48 1543.99 627.48 1543.99 453.4 1517.26 453.4 1417.38 580.18"/><path class="cls-2" d="M1618.38,486.9a54.56,54.56,0,0,1,28.58-7.55,52.26,52.26,0,0,1,24.74,6.07q11.52,6.09,19.52,18.89l22.43-15.44a64.18,64.18,0,0,0-26.89-27.75q-17.37-9.36-39.49-9.36-24.9,0-44.41,11.33a80.62,80.62,0,0,0-30.58,31.37q-11.05,20-11.06,46t11.06,46A81.79,81.79,0,0,0,1602.86,618q19.52,11.5,44.41,11.49,22.13,0,39.49-9.68A66.61,66.61,0,0,0,1713.65,592l-22.43-15.1q-8,12.79-19.52,18.88a52.27,52.27,0,0,1-24.74,6.08,54.47,54.47,0,0,1-28.58-7.56,53.78,53.78,0,0,1-20-21.35q-7.38-13.79-7.38-32.51t7.38-32.35A54.13,54.13,0,0,1,1618.38,486.9Z"/><polygon class="cls-2" points="1871 453.4 1722.26 453.4 1722.26 480.99 1781.88 480.99 1781.88 627.48 1811.38 627.48 1811.38 480.99 1871 480.99 1871 453.4"/><path class="cls-1" d="M67.09,756.7V424.41H93.93V373H62.57A13.58,13.58,0,0,0,49,386.61V761.22a13.58,13.58,0,0,0,13.57,13.57H724a13.57,13.57,0,0,0,13.56-13.57V756.7Z"/><rect class="cls-1" x="163.64" y="397.56"/><rect class="cls-1" x="233.73" y="397.56" width="51.57" height="51.57"/><rect class="cls-1" x="303.82" y="397.56" width="51.57" height="51.57"/><polygon class="cls-2" points="858.06 675.14 868.11 675.14 868.11 699.73 874.8 699.73 874.8 675.14 884.79 675.14 884.79 669.05 858.06 669.05 858.06 675.14"/><path class="cls-2" d="M925.26,670.63a14,14,0,0,0-7.43-2A14.19,14.19,0,0,0,905,676.26a17,17,0,0,0-1.89,8.13,16.52,16.52,0,0,0,1.95,8.13,14.21,14.21,0,0,0,5.51,5.58,16.41,16.41,0,0,0,8.31,2,16.6,16.6,0,0,0,6.65-1.27,12.86,12.86,0,0,0,4.9-3.67l-3.64-4.49a10.15,10.15,0,0,1-3.42,2.53,10.4,10.4,0,0,1-4.33.86,10.06,10.06,0,0,1-5-1.18,8,8,0,0,1-3.29-3.3,9.19,9.19,0,0,1-1-2.93h22.38c0-.31.06-.66.08-1.06s0-.74,0-1a18,18,0,0,0-1.87-8.45A13.9,13.9,0,0,0,925.26,670.63Zm-14.64,8.19a7.32,7.32,0,0,1,2.91-3.19,8.26,8.26,0,0,1,4.3-1.12,8,8,0,0,1,4.28,1.12,7.76,7.76,0,0,1,2.86,3.16,9,9,0,0,1,.91,3.13H909.77A9.59,9.59,0,0,1,910.62,678.82Z"/><polygon class="cls-2" points="980.81 669.05 973.59 669.05 966.57 679.04 959.59 669.05 952.1 669.05 962.81 684.08 951.67 699.73 959.11 699.73 966.48 689.17 973.75 699.73 981.35 699.73 970.13 684.03 980.81 669.05"/><polygon class="cls-2" points="1024.22 681.52 1009.84 681.52 1009.84 669.05 1003.21 669.05 1003.21 699.73 1009.84 699.73 1009.84 687.61 1024.22 687.61 1024.22 699.73 1030.9 699.73 1030.9 669.05 1024.22 669.05 1024.22 681.52"/><polygon class="cls-2" points="1063.68 689.33 1063.68 669.05 1057.05 669.05 1057.05 699.73 1063.2 699.73 1078.86 679.45 1078.86 699.73 1085.49 699.73 1085.49 669.05 1079.39 669.05 1063.68 689.33"/><path class="cls-2" d="M1129.17,682.48a19.73,19.73,0,0,1-3.29,1.22,14.85,14.85,0,0,1-3.88.52,6.88,6.88,0,0,1-4.54-1.38q-1.67-1.38-1.66-4.48v-9.31h-6.63v9.77q0,5.74,3,8.44c2,1.8,4.78,2.7,8.42,2.7a16.68,16.68,0,0,0,4.78-.66,25.5,25.5,0,0,0,3.83-1.47v11.9h6.68V669.05h-6.68Z"/><path class="cls-2" d="M1181.67,670.63a14.07,14.07,0,0,0-7.43-2,14.19,14.19,0,0,0-12.86,7.61,16.89,16.89,0,0,0-1.9,8.13,16.52,16.52,0,0,0,2,8.13,14.28,14.28,0,0,0,5.51,5.58,16.41,16.41,0,0,0,8.31,2,16.65,16.65,0,0,0,6.66-1.27,12.9,12.9,0,0,0,4.89-3.67l-3.64-4.49a10,10,0,0,1-3.42,2.53,10.4,10.4,0,0,1-4.33.86,10.09,10.09,0,0,1-5-1.18,8,8,0,0,1-3.29-3.3,9.45,9.45,0,0,1-1-2.93h22.38c0-.31.06-.66.08-1.06s0-.74,0-1a17.92,17.92,0,0,0-1.87-8.45A13.94,13.94,0,0,0,1181.67,670.63ZM1167,678.82a7.38,7.38,0,0,1,2.91-3.19,8.29,8.29,0,0,1,4.31-1.12,7.93,7.93,0,0,1,4.27,1.12,7.76,7.76,0,0,1,2.86,3.16,8.81,8.81,0,0,1,.91,3.13h-16.16A9.89,9.89,0,0,1,1167,678.82Z"/><path class="cls-2" d="M1221.6,676a8.57,8.57,0,0,1,4.44-1.18,7.81,7.81,0,0,1,4,1.07,8.87,8.87,0,0,1,3.13,3.19l5.08-3.22a11.43,11.43,0,0,0-4.81-5.34,14.43,14.43,0,0,0-7.33-1.84,15.57,15.57,0,0,0-8,2,14.72,14.72,0,0,0-5.48,5.54,17.74,17.74,0,0,0,0,16.29,14.61,14.61,0,0,0,5.48,5.58,15.57,15.57,0,0,0,8,2,14.35,14.35,0,0,0,7.33-1.87,11.73,11.73,0,0,0,4.81-5.32l-5.08-3.21A8.8,8.8,0,0,1,1230,693a7.81,7.81,0,0,1-4,1.06,8.56,8.56,0,0,1-4.44-1.17,8.2,8.2,0,0,1-3.1-3.36,11.07,11.07,0,0,1-1.12-5.12,10.82,10.82,0,0,1,1.12-5.08A8.21,8.21,0,0,1,1221.6,676Z"/><polygon class="cls-2" points="1288.86 669.05 1281.75 669.05 1273.27 681.46 1267.95 681.46 1267.95 669.05 1261.33 669.05 1261.33 699.73 1267.95 699.73 1267.95 687.38 1273.08 687.38 1281.75 699.73 1289.61 699.73 1278.52 683.77 1288.86 669.05"/><polygon class="cls-2" points="1318.1 689.33 1318.1 669.05 1311.47 669.05 1311.47 699.73 1317.62 699.73 1333.28 679.45 1333.28 699.73 1339.91 699.73 1339.91 669.05 1333.82 669.05 1318.1 689.33"/><path class="cls-2" d="M1379.85,665.43c2.89,0,5.1-.72,6.66-2.16s2.32-3.53,2.32-6.29h-4.49a4.58,4.58,0,0,1-1.26,3.27,4.39,4.39,0,0,1-3.28,1.21,4.18,4.18,0,0,1-3.19-1.21,4.76,4.76,0,0,1-1.2-3.27H1371q0,4.14,2.33,6.29A9.26,9.26,0,0,0,1379.85,665.43Z"/><polygon class="cls-2" points="1372.74 689.33 1372.74 669.05 1366.11 669.05 1366.11 699.73 1372.26 699.73 1387.92 679.45 1387.92 699.73 1394.55 699.73 1394.55 669.05 1388.46 669.05 1372.74 689.33"/><path class="cls-2" d="M1463.19,668.65a22.09,22.09,0,0,0-6.57,1,16.35,16.35,0,0,0-5.51,2.88l2.62,5.22a12.13,12.13,0,0,1,4-2.24,14.12,14.12,0,0,1,4.65-.8q3.63,0,5.43,1.75a6.58,6.58,0,0,1,1.79,4.91v.47h-7.44a16.91,16.91,0,0,0-6.95,1.2,7.91,7.91,0,0,0-3.76,3.28,9.38,9.38,0,0,0-1.15,4.65,8.71,8.71,0,0,0,1.31,4.74,8.86,8.86,0,0,0,3.71,3.28,12.72,12.72,0,0,0,5.61,1.18,12,12,0,0,0,6.31-1.5,7.84,7.84,0,0,0,2.68-2.66v3.75h6.31v-18q0-6.68-3.37-9.89T1463.19,668.65Zm3.51,25.05a8.19,8.19,0,0,1-4.41,1.21,6.3,6.3,0,0,1-4-1.15,3.69,3.69,0,0,1-1.45-3,4,4,0,0,1,1.21-3c.8-.78,2.32-1.18,4.57-1.18h7v3.57A7,7,0,0,1,1466.7,693.7Z"/><path class="cls-2" d="M1510.08,676a8.57,8.57,0,0,1,4.44-1.18,7.84,7.84,0,0,1,4,1.07,8.87,8.87,0,0,1,3.13,3.19l5.08-3.22a11.49,11.49,0,0,0-4.81-5.34,14.46,14.46,0,0,0-7.33-1.84,15.57,15.57,0,0,0-8,2,14.65,14.65,0,0,0-5.48,5.54,17.74,17.74,0,0,0,0,16.29,14.54,14.54,0,0,0,5.48,5.58,15.57,15.57,0,0,0,8,2,14.37,14.37,0,0,0,7.33-1.87,11.78,11.78,0,0,0,4.81-5.32l-5.08-3.21a8.8,8.8,0,0,1-3.13,3.24,7.83,7.83,0,0,1-4,1.06,8.56,8.56,0,0,1-4.44-1.17,8.2,8.2,0,0,1-3.1-3.36,11.07,11.07,0,0,1-1.12-5.12,10.82,10.82,0,0,1,1.12-5.08A8.21,8.21,0,0,1,1510.08,676Z"/><path class="cls-2" d="M1557.82,676a8.57,8.57,0,0,1,4.44-1.18,7.84,7.84,0,0,1,4,1.07,8.87,8.87,0,0,1,3.13,3.19l5.08-3.22a11.49,11.49,0,0,0-4.81-5.34,14.43,14.43,0,0,0-7.33-1.84,15.57,15.57,0,0,0-8,2,14.65,14.65,0,0,0-5.48,5.54,17.74,17.74,0,0,0,0,16.29,14.54,14.54,0,0,0,5.48,5.58,15.57,15.57,0,0,0,8,2,14.35,14.35,0,0,0,7.33-1.87,11.78,11.78,0,0,0,4.81-5.32l-5.08-3.21a8.8,8.8,0,0,1-3.13,3.24,7.83,7.83,0,0,1-4,1.06,8.56,8.56,0,0,1-4.44-1.17,8.2,8.2,0,0,1-3.1-3.36,11.07,11.07,0,0,1-1.12-5.12,10.82,10.82,0,0,1,1.12-5.08A8.21,8.21,0,0,1,1557.82,676Z"/><polygon class="cls-2" points="1604.17 689.33 1604.17 669.05 1597.54 669.05 1597.54 699.73 1603.69 699.73 1619.36 679.45 1619.36 699.73 1625.99 699.73 1625.99 669.05 1619.89 669.05 1604.17 689.33"/><path class="cls-2" d="M1660.63,676a8.56,8.56,0,0,1,4.43-1.18,7.85,7.85,0,0,1,4,1.07,8.77,8.77,0,0,1,3.12,3.19l5.08-3.22a11.43,11.43,0,0,0-4.81-5.34,14.42,14.42,0,0,0-7.32-1.84,15.55,15.55,0,0,0-8,2,14.67,14.67,0,0,0-5.49,5.54,17.82,17.82,0,0,0,0,16.29,14.57,14.57,0,0,0,5.49,5.58,15.55,15.55,0,0,0,8,2,14.34,14.34,0,0,0,7.32-1.87,11.73,11.73,0,0,0,4.81-5.32l-5.08-3.21a8.7,8.7,0,0,1-3.12,3.24,7.84,7.84,0,0,1-4,1.06,8.55,8.55,0,0,1-4.43-1.17,8.13,8.13,0,0,1-3.1-3.36,11.07,11.07,0,0,1-1.13-5.12,10.82,10.82,0,0,1,1.13-5.08A8.14,8.14,0,0,1,1660.63,676Z"/><polygon class="cls-2" points="1695.91 675.14 1705.96 675.14 1705.96 699.73 1712.65 699.73 1712.65 675.14 1722.64 675.14 1722.64 669.05 1695.91 669.05 1695.91 675.14"/><path class="cls-2" d="M1763.12,670.63a14.08,14.08,0,0,0-7.44-2,14.19,14.19,0,0,0-12.85,7.61,16.89,16.89,0,0,0-1.9,8.13,16.52,16.52,0,0,0,2,8.13,14.28,14.28,0,0,0,5.51,5.58,16.41,16.41,0,0,0,8.31,2,16.69,16.69,0,0,0,6.66-1.27,12.9,12.9,0,0,0,4.89-3.67l-3.64-4.49a10.15,10.15,0,0,1-3.42,2.53,10.4,10.4,0,0,1-4.33.86,10.06,10.06,0,0,1-5-1.18,8,8,0,0,1-3.29-3.3,9.45,9.45,0,0,1-1-2.93H1770c0-.31.06-.66.08-1.06s0-.74,0-1a17.92,17.92,0,0,0-1.87-8.45A13.94,13.94,0,0,0,1763.12,670.63Zm-14.65,8.19a7.32,7.32,0,0,1,2.91-3.19,8.28,8.28,0,0,1,4.3-1.12,8,8,0,0,1,4.28,1.12,7.76,7.76,0,0,1,2.86,3.16,9,9,0,0,1,.91,3.13h-16.11A9.85,9.85,0,0,1,1748.47,678.82Z"/><polygon class="cls-2" points="1815.62 681.52 1801.23 681.52 1801.23 669.05 1794.6 669.05 1794.6 699.73 1801.23 699.73 1801.23 687.61 1815.62 687.61 1815.62 699.73 1822.3 699.73 1822.3 669.05 1815.62 669.05 1815.62 681.52"/><polygon class="cls-2" points="1871 669.05 1844.27 669.05 1844.27 675.14 1854.32 675.14 1854.32 699.73 1861 699.73 1861 675.14 1871 675.14 1871 669.05"/><path class="cls-1" d="M805.44,423.44V318.78a13.58,13.58,0,0,0-13.57-13.57H130.4a13.58,13.58,0,0,0-13.57,13.57V693.39A13.59,13.59,0,0,0,130.4,707H791.87a13.58,13.58,0,0,0,13.57-13.57v-4.52H134.92V356.58H787.35v66.86Z"/><rect class="cls-1" x="721.3" y="729.88" width="18.09" height="44.9"/><polygon class="cls-1" points="889.65 626.73 889.33 627.48 823.17 627.48 793.73 580.97 761.72 627.48 698.09 627.48 761.72 538.55 700.24 449.13 766.01 449.13 795.5 494.62 826.56 449.13 888.02 449.13 826.43 536.09 869.95 598.49 889.65 626.73"/><polygon class="cls-1" points="890.17 627.48 889.33 627.48 889.65 626.73 890.17 627.48"/></svg>
